<svg width="354" height="225" viewBox="0 0 354 225" fill="none" xmlns="http://www.w3.org/2000/svg">
<path d="M5.76614 88.6232C5.31092 97.2582 4.8557 106.132 0.065033 114.245V111.559C3.64178 104.382 4.0428 96.6057 4.45467 88.5579C5.09415 76.3123 5.75531 63.6425 18.7291 53.2348C21.7314 50.8205 24.712 49.0913 27.6601 47.8841L27.6493 35.8234C27.6493 33.5287 29.5136 31.669 31.7897 31.669L58.431 31.6473C60.7071 31.6473 62.5713 33.4961 62.5713 35.7908L62.5822 48.1016C72.5862 49.5263 82.2976 49.4611 92.6376 41.1741C105.156 31.147 105.763 19.3146 106.414 6.81884C106.533 4.61114 106.652 2.3817 106.825 0.152252H108.148C107.953 2.35995 107.833 4.62202 107.714 6.88409C107.096 19.1406 106.435 31.8104 93.4614 42.2072C82.8395 50.7226 72.5754 50.8205 62.593 49.4284V55.1489C62.593 57.4327 60.7288 59.3032 58.4635 59.3032L31.8222 59.325C29.5352 59.325 27.671 57.4544 27.671 55.1815V49.2653C24.9938 50.4398 22.295 52.0603 19.5529 54.268C7.02343 64.295 6.41646 76.1057 5.76614 88.6232Z" fill="url(#paint0_linear_111_2)"/>
<path d="M3.94527 178.802C2.65547 178.573 1.38736 178.356 0.108398 178.16V176.833C1.46323 177.04 2.81805 177.279 4.16204 177.518C16.4639 179.639 28.0829 181.651 40.5906 171.613C53.1092 161.586 53.7162 149.764 54.3665 137.258C55.006 125.012 55.6563 112.342 68.6301 101.935C81.604 91.5269 94.0575 93.6802 106.11 95.7683C118.412 97.889 130.031 99.9118 142.539 89.8847C155.046 79.8577 155.664 68.0253 156.315 55.5295C156.954 43.2839 157.593 30.6141 170.578 20.2064C183.552 9.80956 196.006 11.952 208.047 14.0401C220.349 16.1608 231.968 18.1836 244.476 8.1565C247.706 5.56817 250.134 2.87109 251.976 0.0652466H253.515C251.553 3.24085 248.898 6.29682 245.31 9.18966C232.337 19.5865 219.883 17.4223 207.83 15.356C195.529 13.2135 183.91 11.2125 171.402 21.2395C158.883 31.2666 158.276 43.0881 157.626 55.5948C156.987 67.8404 156.336 80.5102 143.362 90.9179C130.389 101.315 117.946 99.1723 105.893 97.0842C93.5915 94.9417 81.9616 92.9407 69.443 102.968C56.9244 112.995 56.3175 124.816 55.6671 137.323C55.0277 149.569 54.3882 162.238 41.4035 172.646C28.4405 183.043 15.987 180.89 3.94527 178.802Z" fill="url(#paint1_linear_111_2)"/>
<path d="M272.7 34.812L272.754 34.4748H279.788C280.742 34.5183 281.511 34.812 281.772 35.8343L283.311 43.2186C281.804 39.347 278.173 36.1388 272.7 34.812Z" fill="url(#paint2_linear_111_2)"/>
<path d="M283.495 44.3062L283.972 46.0353L288.416 34.638H293.217L286.074 51.299H281.284L277.219 37.3786C280.135 39.26 282.617 42.229 283.495 44.3062Z" fill="url(#paint3_linear_111_2)"/>
<path d="M301.476 39.8255C301.498 36.5847 304.663 34.3008 309.139 34.3008C310.895 34.3008 312.315 34.6706 313.203 35.0077L312.586 38.6184L312.174 38.4335C311.328 38.0963 310.255 37.781 308.771 37.7918C307.004 37.7918 306.169 38.5422 306.169 39.2382C306.158 40.0104 307.145 40.5324 308.727 41.3046C311.339 42.5009 312.553 43.9364 312.521 45.8505C312.499 49.3197 309.399 51.56 304.641 51.56C302.603 51.5383 300.652 51.125 299.59 50.6682L300.23 46.9271L300.804 47.1881C302.289 47.808 303.264 48.069 305.075 48.069C306.375 48.069 307.773 47.5579 307.795 46.4377C307.806 45.6982 307.199 45.1762 305.443 44.3605C303.72 43.5666 301.454 42.2181 301.476 39.8255Z" fill="url(#paint4_linear_111_2)"/>
<path d="M312.239 51.299L318.959 35.9756C319.436 34.899 320.259 34.5945 321.343 34.5945H324.844L328.529 51.2881H324.313C324.313 51.2881 323.901 49.3741 323.76 48.7977H317.951C317.777 49.2327 316.997 51.2881 316.997 51.2881L312.239 51.299Z" fill="url(#paint5_linear_111_2)"/>
<path d="M350.9 10.4077C352.569 13.4202 353.501 16.9003 353.501 20.587L353.523 44.7412C353.155 47.8515 352.992 50.9727 352.829 54.0613C352.179 66.5789 351.572 78.3895 339.054 88.4166C326.535 98.4436 314.916 96.4317 302.625 94.3001C290.583 92.2121 278.13 90.0587 265.156 100.466C252.171 110.863 251.521 123.533 250.892 135.79C250.242 148.285 249.635 160.118 237.116 170.145C224.598 180.172 212.979 178.16 200.688 176.028C188.635 173.94 176.182 171.787 163.208 182.195C150.234 192.591 149.573 205.261 148.944 217.518C148.825 219.78 148.717 222.031 148.511 224.25L77.301 224.304C78.038 223.804 78.7859 223.249 79.5229 222.651C92.5076 212.254 93.1579 199.584 93.7865 187.328C94.4369 174.81 95.0438 163 107.562 152.973C120.081 142.946 131.711 144.947 144.013 147.089C156.065 149.177 168.508 151.33 181.482 140.923C194.456 130.526 195.117 117.856 195.745 105.6C196.396 93.0821 197.003 81.2715 209.521 71.2444C222.04 61.2173 233.659 63.2184 245.95 65.3608C258.002 67.438 270.456 69.6022 283.43 59.1945C287.776 55.7035 290.746 51.9624 292.784 48.0581L292.231 51.299H296.761L299.601 34.6053H296.826C297.325 31.0382 297.509 27.4385 297.683 23.8714C298.105 15.4974 298.539 7.43873 302.527 0.0217438H301.075C297.217 7.62361 296.794 15.8019 296.382 23.8061C296.187 27.482 296.003 31.0926 295.515 34.6053H295.07L293.694 42.7183C291.83 48.1886 288.578 53.3762 282.617 58.1613C270.098 68.1884 258.479 66.1765 246.188 64.0449C234.147 61.9568 221.693 59.8035 208.719 70.2112C195.735 80.6081 195.084 93.2778 194.456 105.534C193.805 118.03 193.198 129.862 180.68 139.89C168.161 149.917 156.542 147.905 144.251 145.773C132.199 143.685 119.745 141.532 106.771 151.939C93.7974 162.347 93.1037 175.028 92.4751 187.273C91.8248 199.791 91.2178 211.602 78.6992 221.629C77.4311 222.64 76.1846 223.543 74.9165 224.304L20.9402 224.347C13.2665 224.358 6.53569 220.258 2.82889 214.136C6.45982 220.628 13.3749 225.011 21.3087 225L332.843 224.772C344.538 224.761 354.011 215.234 354 203.51L353.87 21.2178C353.87 17.2592 352.797 13.5615 350.9 10.4077ZM353.642 202.858C353.653 214.592 344.169 224.108 332.485 224.119L190.088 224.217C190.153 224.152 190.229 224.097 190.315 224.032C202.834 214.005 214.464 216.006 226.766 218.149C238.818 220.237 251.261 222.39 264.235 211.982C277.208 201.585 277.87 188.916 278.498 176.659C279.149 164.142 279.756 152.331 292.274 142.304C304.793 132.277 316.412 134.278 328.703 136.42C336.821 137.812 345.102 139.248 353.599 136.866L353.642 202.858ZM353.588 135.539C345.351 137.965 337.287 136.562 328.909 135.126C316.867 133.038 304.413 130.885 291.44 141.292C278.455 151.689 277.805 164.359 277.176 176.616C276.526 189.111 275.919 200.944 263.4 210.971C250.881 220.998 239.262 218.986 226.971 216.854C214.919 214.766 202.465 212.613 189.492 223.021C188.993 223.412 188.505 223.825 188.05 224.239L149.844 224.271C150.028 222.042 150.147 219.823 150.256 217.605C150.906 205.087 151.513 193.277 164.032 183.25C176.55 173.222 188.169 175.224 200.482 177.366C212.534 179.454 224.977 181.607 237.951 171.2C250.925 160.803 251.586 148.133 252.215 135.877C252.865 123.359 253.472 111.548 265.99 101.521C278.509 91.4943 290.128 93.4953 302.419 95.6378C314.472 97.715 326.925 99.8792 339.899 89.4715C349.816 81.5216 352.526 72.2449 353.545 62.8595L353.588 135.539Z" fill="url(#paint6_linear_111_2)"/>
<path d="M106.825 0.163132C106.641 2.39258 106.522 4.61115 106.414 6.82972C105.763 19.3255 105.156 31.1579 92.6377 41.1849C82.2976 49.4611 72.5862 49.5372 62.5822 48.1125L62.5713 35.8016C62.5713 33.5069 60.7071 31.6581 58.431 31.6581L31.7897 31.6799C29.5027 31.6799 27.6385 33.5396 27.6493 35.8343L27.6602 47.895C24.7121 49.1131 21.7314 50.8314 18.7291 53.2457C5.75531 63.6425 5.09416 76.3123 4.45468 88.5579C4.04281 96.6057 3.64178 104.382 0.065041 111.559L9.28099e-06 21.4788C-0.0108293 9.76606 9.47296 0.228384 21.157 0.228384L106.825 0.163132Z" fill="url(#paint7_linear_111_2)"/>
<path d="M251.998 0.0543823C250.144 2.86022 247.727 5.55731 244.497 8.14564C231.979 18.1727 220.36 16.1608 208.069 14.0292C196.027 11.9411 183.574 9.78782 170.6 20.1955C157.615 30.5924 156.965 43.2621 156.336 55.5186C155.686 68.0144 155.079 79.8468 142.56 89.8739C130.042 99.9009 118.423 97.889 106.132 95.7574C94.0792 93.6694 81.6256 91.516 68.6518 101.924C55.678 112.331 55.0168 124.99 54.3882 137.247C53.7378 149.764 53.1309 161.575 40.6123 171.602C28.0937 181.629 16.4747 179.628 4.1837 177.507C2.82887 177.268 1.47404 177.04 0.130055 176.822L0.0867004 114.235C4.88821 106.122 5.34343 97.2582 5.78781 88.6123C6.43813 76.0948 7.04509 64.2842 19.5637 54.2571C22.3059 52.0603 25.0047 50.429 27.6818 49.2544V55.1706C27.6818 57.4545 29.5461 59.3141 31.833 59.3141L58.4743 59.2924C60.7504 59.2924 62.6038 57.4218 62.6038 55.138V49.4176C72.5754 50.8096 82.8504 50.7117 93.4722 42.1963C106.435 31.8104 107.096 19.1406 107.725 6.89497C107.844 4.6329 107.953 2.38171 108.159 0.163136L251.998 0.0543823Z" fill="url(#paint8_linear_111_2)"/>
<path d="M253.537 0.0543698C251.575 3.22997 248.92 6.28594 245.332 9.17878C232.358 19.5756 219.905 17.4114 207.852 15.3451C195.55 13.2027 183.931 11.2016 171.424 21.2287C158.905 31.2557 158.298 43.0772 157.648 55.5839C157.008 67.8295 156.358 80.4993 143.384 90.907C130.41 101.304 117.967 99.1614 105.915 97.0733C93.6131 94.9309 81.9833 92.9298 69.4647 102.957C56.9461 112.984 56.3391 124.805 55.6888 137.312C55.0493 149.558 54.4098 162.228 41.4252 172.635C28.4514 183.032 15.9978 180.89 3.9561 178.802C2.66631 178.573 1.39819 178.356 0.119232 178.16L0.140909 203.771C0.140909 207.415 1.06219 210.851 2.69882 213.853C2.75302 213.962 2.78553 214.049 2.8614 214.125C6.56821 220.247 13.2881 224.337 20.9727 224.337L74.949 224.293C76.2063 223.532 77.4527 222.629 78.7317 221.618C91.2503 211.591 91.8573 199.769 92.5076 187.263C93.147 175.017 93.7974 162.347 106.771 151.939C119.745 141.532 132.199 143.685 144.251 145.773C156.553 147.894 168.172 149.917 180.68 139.89C193.187 129.862 193.805 118.03 194.456 105.534C195.095 93.2887 195.735 80.6189 208.719 70.2112C221.693 59.8144 234.147 61.9568 246.188 64.0449C258.49 66.1656 270.109 68.1884 282.617 58.1613C288.589 53.3762 291.841 48.1886 293.694 42.7183L295.07 34.6053H295.515C296.013 31.0926 296.198 27.482 296.382 23.8061C296.794 15.8019 297.227 7.62361 301.075 0.0217438L253.537 0.0543698ZM272.754 34.4748H279.788C280.742 34.5183 281.511 34.812 281.771 35.8343L283.311 43.2186C281.793 39.3579 278.173 36.1496 272.7 34.8228L272.754 34.4748ZM286.074 51.2881H281.284L277.219 37.3677C280.135 39.2491 282.617 42.229 283.495 44.2953L283.972 46.0244L288.416 34.6271H293.217L286.074 51.2881Z" fill="url(#paint9_linear_111_2)"/>
<path d="M272.7 34.812L272.754 34.4748H279.788C280.742 34.5183 281.511 34.812 281.772 35.8343L283.311 43.2186C281.804 39.347 278.173 36.1388 272.7 34.812Z" fill="url(#paint10_linear_111_2)"/>
<path d="M283.495 44.3062L283.972 46.0353L288.416 34.638H293.217L286.074 51.299H281.284L277.219 37.3786C280.135 39.26 282.617 42.229 283.495 44.3062Z" fill="url(#paint11_linear_111_2)"/>
<path d="M350.9 10.4077C349.22 7.53661 346.879 5.13316 344.072 3.33873C340.788 1.21804 336.875 0 332.691 0L302.527 0.0217507C298.539 7.43874 298.116 15.4974 297.683 23.8714C297.498 27.4385 297.325 31.0382 296.826 34.6053H299.601L296.761 51.299H292.231L292.784 48.0581C290.757 51.9624 287.776 55.7035 283.43 59.1945C270.456 69.5913 258.002 67.4271 245.95 65.3608C233.648 63.2184 222.029 61.2173 209.521 71.2444C197.003 81.2715 196.396 93.0929 195.745 105.6C195.106 117.845 194.456 130.515 181.482 140.923C168.508 151.32 156.065 149.177 144.013 147.089C131.711 144.947 120.081 142.946 107.562 152.973C95.0438 163 94.4369 174.821 93.7866 187.328C93.1471 199.573 92.5076 212.243 79.5229 222.651C78.7859 223.249 78.0381 223.793 77.301 224.304L148.511 224.25C148.706 222.042 148.825 219.78 148.944 217.518C149.584 205.272 150.234 192.602 163.208 182.195C176.182 171.798 188.635 173.94 200.688 176.028C212.99 178.149 224.609 180.172 237.116 170.145C249.624 160.118 250.242 148.285 250.892 135.79C251.532 123.544 252.171 110.874 265.156 100.466C278.13 90.0696 290.583 92.212 302.625 94.3001C314.927 96.4208 326.546 98.4436 339.054 88.4166C351.572 78.3895 352.179 66.568 352.829 54.0613C352.981 50.9619 353.155 47.8406 353.523 44.7412L353.501 20.587C353.501 16.9003 352.569 13.4202 350.9 10.4077ZM304.663 51.56C302.625 51.5383 300.674 51.125 299.612 50.6682L300.251 46.9271L300.826 47.1881C302.311 47.808 303.286 48.069 305.096 48.069C306.397 48.069 307.795 47.5579 307.817 46.4377C307.828 45.6982 307.221 45.1762 305.465 44.3605C303.731 43.5666 301.454 42.229 301.487 39.8364C301.509 36.5955 304.673 34.3117 309.15 34.3117C310.906 34.3117 312.326 34.6815 313.214 35.0186L312.597 38.6292L312.185 38.4443C311.339 38.1072 310.266 37.7918 308.781 37.8027C307.015 37.8027 306.18 38.5531 306.18 39.2491C306.169 40.0213 307.156 40.5433 308.738 41.3154C311.35 42.5117 312.564 43.9473 312.531 45.8613C312.521 49.3088 309.421 51.5491 304.663 51.56ZM324.324 51.2881C324.324 51.2881 323.912 49.3741 323.771 48.7977H317.962C317.788 49.2327 317.008 51.2881 317.008 51.2881H312.239L318.959 35.9648C319.436 34.8881 320.259 34.5836 321.343 34.5836H324.844L328.529 51.2772L324.324 51.2881Z" fill="url(#paint12_linear_111_2)"/>
<path d="M301.476 39.8255C301.498 36.5847 304.663 34.3008 309.139 34.3008C310.895 34.3008 312.315 34.6706 313.203 35.0077L312.586 38.6184L312.174 38.4335C311.328 38.0963 310.255 37.781 308.771 37.7918C307.004 37.7918 306.169 38.5422 306.169 39.2382C306.158 40.0104 307.145 40.5324 308.727 41.3046C311.339 42.5009 312.553 43.9364 312.521 45.8505C312.499 49.3197 309.399 51.56 304.641 51.56C302.603 51.5383 300.652 51.125 299.59 50.6682L300.23 46.9271L300.804 47.1881C302.289 47.808 303.264 48.069 305.075 48.069C306.375 48.069 307.773 47.5579 307.795 46.4377C307.806 45.6982 307.199 45.1762 305.443 44.3605C303.72 43.5666 301.454 42.2181 301.476 39.8255Z" fill="url(#paint13_linear_111_2)"/>
<path d="M312.239 51.299L318.959 35.9756C319.436 34.899 320.259 34.5945 321.343 34.5945H324.844L328.529 51.2881H324.313C324.313 51.2881 323.901 49.3741 323.76 48.7977H317.951C317.777 49.2327 316.997 51.2881 316.997 51.2881L312.239 51.299Z" fill="url(#paint14_linear_111_2)"/>
<path d="M353.534 62.8377L353.588 135.539C345.351 137.965 337.287 136.562 328.909 135.126C316.867 133.038 304.413 130.885 291.44 141.292C278.455 151.689 277.805 164.359 277.176 176.616C276.526 189.111 275.919 200.944 263.4 210.971C250.881 220.998 239.262 218.986 226.971 216.854C214.919 214.766 202.465 212.613 189.492 223.021C188.993 223.412 188.505 223.825 188.05 224.239L149.844 224.271C150.028 222.042 150.147 219.823 150.256 217.605C150.906 205.087 151.513 193.277 164.032 183.25C176.55 173.222 188.169 175.224 200.482 177.366C212.534 179.454 224.977 181.607 237.951 171.2C250.925 160.803 251.586 148.133 252.215 135.877C252.865 123.359 253.472 111.548 265.99 101.521C278.509 91.4943 290.128 93.4953 302.419 95.6378C314.472 97.715 326.925 99.8792 339.899 89.4715C349.806 81.4998 352.515 72.2232 353.534 62.8377Z" fill="url(#paint15_linear_111_2)"/>
<path d="M350.9 10.4077C352.569 13.4202 353.501 16.9003 353.501 20.587L353.523 44.7412C353.155 47.8515 352.992 50.9727 352.829 54.0613C352.179 66.5789 351.572 78.3895 339.054 88.4166C326.535 98.4436 314.916 96.4317 302.625 94.3001C290.583 92.2121 278.13 90.0587 265.156 100.466C252.171 110.863 251.521 123.533 250.892 135.79C250.242 148.285 249.635 160.118 237.116 170.145C224.598 180.172 212.979 178.16 200.688 176.028C188.635 173.94 176.182 171.787 163.208 182.195C150.234 192.591 149.573 205.261 148.944 217.518C148.825 219.78 148.717 222.031 148.511 224.25L77.301 224.304C78.038 223.804 78.7859 223.249 79.5229 222.651C92.5076 212.254 93.1579 199.584 93.7865 187.328C94.4369 174.81 95.0438 163 107.562 152.973C120.081 142.946 131.711 144.947 144.013 147.089C156.065 149.177 168.508 151.33 181.482 140.923C194.456 130.526 195.117 117.856 195.745 105.6C196.396 93.0821 197.003 81.2715 209.521 71.2444C222.04 61.2173 233.659 63.2184 245.95 65.3608C258.002 67.438 270.456 69.6022 283.43 59.1945C287.776 55.7035 290.746 51.9624 292.784 48.0581L292.231 51.299H296.761L299.601 34.6053H296.826C297.325 31.0382 297.509 27.4385 297.683 23.8714C298.105 15.4974 298.539 7.43873 302.527 0.0217438H301.075C297.217 7.62361 296.794 15.8019 296.382 23.8061C296.187 27.482 296.003 31.0926 295.515 34.6053H295.07L293.694 42.7183C291.83 48.1886 288.578 53.3762 282.617 58.1613C270.098 68.1884 258.479 66.1765 246.188 64.0449C234.147 61.9568 221.693 59.8035 208.719 70.2112C195.735 80.6081 195.084 93.2778 194.456 105.534C193.805 118.03 193.198 129.862 180.68 139.89C168.161 149.917 156.542 147.905 144.251 145.773C132.199 143.685 119.745 141.532 106.771 151.939C93.7974 162.347 93.1037 175.028 92.4751 187.273C91.8248 199.791 91.2178 211.602 78.6992 221.629C77.4311 222.64 76.1846 223.543 74.9165 224.304L20.9402 224.347C13.2665 224.358 6.53569 220.258 2.82889 214.136C6.45982 220.628 13.3749 225.011 21.3087 225L332.843 224.772C344.538 224.761 354.011 215.234 354 203.51L353.87 21.2178C353.87 17.2592 352.797 13.5615 350.9 10.4077ZM353.642 202.858C353.653 214.592 344.169 224.108 332.485 224.119L190.088 224.217C190.153 224.152 190.229 224.097 190.315 224.032C202.834 214.005 214.464 216.006 226.766 218.149C238.818 220.237 251.261 222.39 264.235 211.982C277.208 201.585 277.87 188.916 278.498 176.659C279.149 164.142 279.756 152.331 292.274 142.304C304.793 132.277 316.412 134.278 328.703 136.42C336.821 137.812 345.102 139.248 353.599 136.866L353.642 202.858ZM353.588 135.539C345.351 137.965 337.287 136.562 328.909 135.126C316.867 133.038 304.413 130.885 291.44 141.292C278.455 151.689 277.805 164.359 277.176 176.616C276.526 189.111 275.919 200.944 263.4 210.971C250.881 220.998 239.262 218.986 226.971 216.854C214.919 214.766 202.465 212.613 189.492 223.021C188.993 223.412 188.505 223.825 188.05 224.239L149.844 224.271C150.028 222.042 150.147 219.823 150.256 217.605C150.906 205.087 151.513 193.277 164.032 183.25C176.55 173.222 188.169 175.224 200.482 177.366C212.534 179.454 224.977 181.607 237.951 171.2C250.925 160.803 251.586 148.133 252.215 135.877C252.865 123.359 253.472 111.548 265.99 101.521C278.509 91.4943 290.128 93.4953 302.419 95.6378C314.472 97.715 326.925 99.8792 339.899 89.4715C349.816 81.5216 352.526 72.2449 353.545 62.8595L353.588 135.539Z" fill="url(#paint16_linear_111_2)"/>
<path d="M353.588 136.866L353.631 202.858C353.642 214.592 344.158 224.108 332.474 224.119L190.077 224.217C190.142 224.152 190.218 224.097 190.304 224.032C202.823 214.005 214.453 216.006 226.755 218.149C238.807 220.237 251.25 222.39 264.224 211.982C277.198 201.585 277.859 188.916 278.487 176.659C279.138 164.142 279.745 152.331 292.263 142.304C304.782 132.277 316.401 134.278 328.692 136.42C336.799 137.812 345.091 139.259 353.588 136.866Z" fill="url(#paint17_linear_111_2)"/>
<path d="M258.781 165.027H262.282V165.973H257.784V158.404H262.228V159.361H258.781V161.688H261.957V162.624H258.781V165.027Z" fill="white"/>
<path d="M268.059 165.963H266.964L265.447 163.918L263.94 165.963H262.845L264.905 163.178L262.965 160.557H264.07L265.458 162.428L266.845 160.547H267.94L265.999 163.168L268.059 165.963Z" fill="white"/>
<path d="M271.907 160.427C272.665 160.427 273.305 160.699 273.836 161.253C274.367 161.808 274.638 162.482 274.638 163.265C274.638 164.059 274.378 164.734 273.847 165.277C273.316 165.832 272.676 166.104 271.917 166.104C271.029 166.104 270.346 165.745 269.88 165.038V168.127H268.948L268.937 160.557H269.88V161.482C270.335 160.775 271.018 160.427 271.907 160.427ZM271.787 165.201C272.329 165.201 272.774 165.016 273.142 164.647C273.511 164.277 273.695 163.82 273.695 163.265C273.695 162.722 273.511 162.254 273.142 161.884C272.774 161.514 272.318 161.33 271.787 161.33C271.245 161.33 270.79 161.514 270.422 161.884C270.053 162.254 269.869 162.711 269.869 163.265C269.869 163.809 270.053 164.266 270.422 164.647C270.79 165.016 271.245 165.201 271.787 165.201Z" fill="white"/>
<path d="M276.22 159.579C276.036 159.579 275.895 159.513 275.765 159.394C275.646 159.274 275.581 159.122 275.581 158.948C275.581 158.774 275.646 158.622 275.765 158.502C275.884 158.372 276.036 158.317 276.22 158.317C276.394 158.317 276.535 158.382 276.665 158.502C276.784 158.633 276.849 158.774 276.849 158.948C276.849 159.122 276.784 159.263 276.665 159.394C276.545 159.513 276.394 159.579 276.22 159.579ZM275.754 165.963V160.557H276.697V165.963H275.754Z" fill="white"/>
<path d="M279.049 161.46C279.353 160.786 279.916 160.46 280.729 160.46V161.438C280.274 161.417 279.873 161.536 279.548 161.808C279.223 162.08 279.049 162.504 279.049 163.091V165.952H278.117V160.547H279.06V161.46H279.049Z" fill="white"/>
<path d="M285.531 160.557H286.528L284.338 166.3C284.111 166.909 283.786 167.376 283.374 167.703C282.962 168.018 282.485 168.17 281.943 168.127V167.257C282.604 167.311 283.081 166.941 283.385 166.147L283.482 165.941L281.13 160.557H282.127L283.927 164.701L285.531 160.557Z" fill="white"/>
<path d="M293.042 158.382C294.072 158.382 294.917 158.752 295.6 159.481C296.283 160.209 296.619 161.101 296.619 162.167C296.619 163.222 296.283 164.125 295.6 164.853C294.917 165.582 294.072 165.952 293.042 165.952H290.105L290.094 158.382H293.042ZM293.042 164.995C293.811 164.995 294.44 164.723 294.928 164.179C295.416 163.635 295.654 162.961 295.654 162.156C295.654 161.351 295.405 160.677 294.917 160.133C294.429 159.59 293.801 159.329 293.031 159.329H291.091V164.995H293.042Z" fill="white"/>
<path d="M302.2 160.536H303.133V165.941H302.19V165.016C301.724 165.734 301.041 166.082 300.152 166.093C299.393 166.093 298.754 165.821 298.223 165.266C297.692 164.712 297.421 164.048 297.421 163.255C297.421 162.461 297.681 161.786 298.212 161.243C298.743 160.688 299.382 160.416 300.141 160.416C301.03 160.416 301.713 160.775 302.179 161.482L302.2 160.536ZM300.282 165.179C300.824 165.179 301.279 164.995 301.648 164.625C302.016 164.255 302.2 163.798 302.2 163.244C302.2 162.7 302.016 162.232 301.648 161.862C301.279 161.493 300.824 161.308 300.282 161.308C299.74 161.308 299.296 161.493 298.927 161.862C298.559 162.232 298.374 162.689 298.374 163.244C298.374 163.787 298.559 164.244 298.927 164.625C299.296 164.995 299.74 165.179 300.282 165.179Z" fill="white"/>
<path d="M307.479 161.449H306.048V164.375C306.048 164.647 306.102 164.831 306.2 164.94C306.308 165.049 306.46 165.114 306.677 165.114C306.894 165.114 307.154 165.114 307.479 165.092V165.941C306.655 166.05 306.059 165.984 305.68 165.745C305.3 165.506 305.105 165.049 305.105 164.375V161.449H304.043V160.547H305.105V159.318L306.037 159.035V160.547H307.468L307.479 161.449Z" fill="white"/>
<path d="M308.985 163.668C309.083 164.146 309.3 164.527 309.647 164.788C309.993 165.06 310.427 165.19 310.936 165.19C311.652 165.19 312.161 164.929 312.486 164.396L313.288 164.853C312.768 165.669 311.977 166.071 310.915 166.071C310.058 166.071 309.365 165.799 308.834 165.266C308.303 164.734 308.032 164.048 308.032 163.233C308.032 162.417 308.292 161.743 308.812 161.199C309.332 160.655 310.015 160.383 310.85 160.383C311.641 160.383 312.28 160.666 312.79 161.221C313.288 161.775 313.538 162.45 313.538 163.233C313.538 163.374 313.527 163.505 313.505 163.657L308.985 163.668ZM310.839 161.275C310.34 161.275 309.918 161.417 309.592 161.699C309.267 161.982 309.061 162.363 308.975 162.841H312.573C312.497 162.33 312.291 161.939 311.966 161.678C311.652 161.417 311.272 161.275 310.839 161.275Z" fill="white"/>
<path d="M265.458 186.985C264.677 188.072 263.582 188.616 262.184 188.627C260.775 188.627 259.681 188.083 258.9 186.995C258.12 185.908 257.73 184.451 257.73 182.634C257.73 180.818 258.12 179.361 258.9 178.273C259.681 177.186 260.775 176.631 262.173 176.631C263.582 176.631 264.666 177.175 265.447 178.262C266.227 179.35 266.617 180.807 266.617 182.624C266.628 184.44 266.238 185.897 265.458 186.985ZM260.017 185.951C260.526 186.734 261.241 187.126 262.173 187.126C263.106 187.126 263.832 186.734 264.341 185.951C264.851 185.168 265.111 184.059 265.1 182.624C265.089 181.188 264.84 180.079 264.33 179.296C263.821 178.513 263.095 178.11 262.163 178.11C261.23 178.11 260.504 178.502 260.006 179.285C259.496 180.068 259.247 181.177 259.247 182.624C259.258 184.059 259.518 185.168 260.017 185.951Z" fill="white"/>
<path d="M267.744 188.409V187.148L271.809 182.982C272.893 181.895 273.435 180.96 273.435 180.177C273.435 179.524 273.24 179.024 272.839 178.654C272.448 178.295 271.961 178.11 271.386 178.11C270.302 178.11 269.511 178.632 269.013 179.665L267.723 178.904C268.08 178.154 268.59 177.588 269.229 177.197C269.869 176.805 270.584 176.62 271.365 176.62C272.329 176.62 273.175 176.936 273.89 177.577C274.605 178.219 274.963 179.078 274.963 180.155C274.963 181.329 274.28 182.602 272.904 183.972L269.966 186.919H275.18V188.409H267.744Z" fill="white"/>
<path d="M277.326 190.03L276.47 190.051L283.049 175.196L283.905 175.174L277.326 190.03Z" fill="white"/>
<path d="M289.725 181.558C290.603 181.721 291.329 182.101 291.882 182.7C292.446 183.298 292.728 184.048 292.728 184.962C292.728 186.082 292.348 186.974 291.579 187.626C290.809 188.279 289.877 188.605 288.782 188.605C287.904 188.605 287.124 188.409 286.441 188.007C285.758 187.604 285.281 187.028 284.989 186.267L286.268 185.505C286.604 186.571 287.438 187.104 288.771 187.104C289.487 187.104 290.072 186.919 290.516 186.539C290.961 186.158 291.188 185.636 291.188 184.973C291.188 184.298 290.961 183.776 290.516 183.396C290.061 183.015 289.487 182.83 288.771 182.83H288.381L287.774 181.884L290.441 178.262H285.314V176.827H292.229L292.218 178.175L289.725 181.558Z" fill="white"/>
<path d="M301.81 186.963C301.03 188.05 299.935 188.605 298.537 188.605C297.128 188.605 296.033 188.061 295.253 186.974C294.473 185.886 294.082 184.429 294.082 182.613C294.082 180.796 294.473 179.339 295.253 178.252C296.033 177.164 297.128 176.62 298.526 176.609C299.935 176.609 301.019 177.153 301.799 178.241C302.58 179.328 302.97 180.786 302.97 182.602C302.97 184.418 302.591 185.864 301.81 186.963ZM296.38 185.919C296.89 186.702 297.605 187.093 298.537 187.093C299.469 187.093 300.195 186.702 300.705 185.919C301.214 185.136 301.474 184.026 301.474 182.602C301.474 181.166 301.214 180.057 300.705 179.274C300.195 178.491 299.469 178.088 298.537 178.099C297.605 178.099 296.879 178.491 296.38 179.274C295.871 180.057 295.621 181.166 295.621 182.613C295.621 184.037 295.871 185.136 296.38 185.919Z" fill="white"/>
<path d="M324.94 34.9472H321.439C320.344 34.9472 319.521 35.2517 319.055 36.3284L312.335 51.6518H317.104C317.104 51.6518 317.895 49.5963 318.057 49.1613H323.867C324.008 49.7377 324.42 51.6518 324.42 51.6518H328.636L324.94 34.9472ZM319.358 45.7356C319.727 44.7785 321.136 41.0483 321.136 41.0483C321.136 41.0483 321.526 40.0695 321.753 39.4714L322.057 40.9069C322.057 40.9069 322.935 44.8873 323.108 45.7356H319.358Z" fill="white"/>
<path d="M306.287 39.591C306.276 40.3631 307.262 40.8852 308.844 41.6573C311.457 42.8536 312.671 44.2891 312.638 46.2032C312.616 49.6724 309.516 51.9128 304.758 51.9128C302.721 51.891 300.77 51.4777 299.708 51.021L300.347 47.2799L300.921 47.5409C302.406 48.1608 303.382 48.4218 305.192 48.4218C306.493 48.4218 307.891 47.9106 307.912 46.7905C307.923 46.0509 307.316 45.5289 305.56 44.7133C303.826 43.9194 301.55 42.5817 301.583 40.1891C301.604 36.9483 304.769 34.6645 309.246 34.6645C311.001 34.6645 312.421 35.0342 313.31 35.3714L312.692 38.982L312.28 38.7971C311.435 38.46 310.362 38.1446 308.877 38.1554C307.11 38.1446 306.287 38.895 306.287 39.591Z" fill="white"/>
<path d="M299.686 34.9581L296.857 51.6518H292.326L292.879 48.4109L293.779 43.082L295.145 34.969L299.686 34.9581Z" fill="white"/>
<path d="M283.406 43.5605C281.889 39.6997 278.269 36.4915 272.795 35.1647L272.849 34.8276H279.884C280.838 34.8711 281.607 35.1647 281.867 36.187L283.406 43.5605Z" fill="white"/>
<path d="M293.313 34.9798L286.17 51.6409H281.379L277.315 37.7204C280.231 39.6019 282.713 42.5817 283.591 44.648L284.067 46.3772L288.511 34.9798H293.313Z" fill="white"/>
<path d="M62.6779 36.1435L62.6887 55.5016C62.6887 57.7854 60.8245 59.656 58.5592 59.656L31.9179 59.6778C29.6309 59.6778 27.7667 57.8072 27.7667 55.5342L27.745 36.1761C27.745 33.8814 29.6093 32.0218 31.8854 32.0218L58.5375 32C60.8136 32 62.6779 33.8488 62.6779 36.1435Z" fill="#F6C859"/>
<path d="M41.2174 55.9801C41.0657 55.9801 40.9248 55.904 40.8598 55.7626C40.7622 55.5669 40.8381 55.3167 41.0332 55.2189C41.6185 54.9143 42.4097 54.3488 42.8757 53.3809C43.461 52.1411 43.3093 50.7926 43.06 50.673C42.995 50.6403 42.7565 50.7708 42.6048 50.847C42.2254 51.0427 41.6943 51.3146 41.0874 51.0971C40.4912 50.8905 40.1986 50.3576 40.0577 50.0966C39.1364 48.4109 38.8546 44.039 39.8192 41.8639C40.1444 41.1462 40.5779 40.7111 41.1199 40.5806C41.6726 40.4501 42.1279 40.6785 42.4855 40.8743C42.7782 41.0265 42.9299 41.0918 43.0275 41.0374C43.4068 40.809 43.396 39.417 42.8649 38.3186C42.3988 37.3398 41.6076 36.7743 41.0223 36.4806C40.8272 36.3828 40.7405 36.1326 40.8489 35.9369C40.9465 35.7411 41.1957 35.6541 41.3908 35.7629C42.0845 36.1217 43.0383 36.796 43.5911 37.9814C44.1438 39.1451 44.404 41.157 43.4393 41.7443C42.9516 42.0379 42.4855 41.7987 42.117 41.6138C41.8352 41.4724 41.5643 41.331 41.3041 41.3963C40.9465 41.4833 40.708 41.8857 40.5563 42.2119C39.7109 44.1151 39.9601 48.2478 40.7622 49.7268C40.9031 49.9769 41.0657 50.2488 41.3475 50.3467C41.6185 50.4446 41.8786 50.3249 42.2363 50.1401C42.5939 49.9552 42.9841 49.7594 43.4068 49.9552C44.3173 50.4011 44.2522 52.3478 43.6019 53.7398C43.0383 54.9252 42.0954 55.5995 41.4017 55.9584C41.3366 55.9693 41.2716 55.9801 41.2174 55.9801Z" fill="#7D662D"/>
<path d="M39.9926 42.5926H32.7199C32.4923 42.5926 32.3189 42.4077 32.3189 42.1902C32.3189 41.9727 32.4923 41.7878 32.7091 41.7878H39.9818C40.2094 41.7878 40.3828 41.9727 40.3828 42.1902C40.3937 42.4077 40.2203 42.5926 39.9926 42.5926Z" fill="#7D662D"/>
<path d="M39.9926 49.9008H32.7199C32.4923 49.9008 32.3189 49.7159 32.3189 49.4984C32.3189 49.27 32.5032 49.096 32.7199 49.096H39.9926C40.2203 49.096 40.3937 49.2809 40.3937 49.4984C40.4045 49.7159 40.2203 49.9008 39.9926 49.9008Z" fill="#7D662D"/>
<path d="M49.7041 55.9693C49.639 55.9693 49.574 55.9584 49.5198 55.9258C48.8261 55.5669 47.8723 54.8926 47.3196 53.7072C46.6584 52.3151 46.6042 50.3685 47.5038 49.9226C47.9265 49.7159 48.3275 49.9226 48.6744 50.0966C49.0429 50.2815 49.303 50.4011 49.5631 50.3032C49.8666 50.1945 50.04 49.8791 50.1484 49.6833C50.9505 48.2043 51.1889 44.0608 50.3435 42.1685C50.1918 41.8422 49.9533 41.4289 49.5957 41.3528C49.3789 41.2984 49.238 41.0809 49.2922 40.8634C49.3464 40.6459 49.5631 40.5154 49.7799 40.5589C50.3219 40.6894 50.7554 41.1135 51.0806 41.8313C52.056 44.0064 51.7742 48.3892 50.8529 50.064C50.712 50.325 50.4194 50.8579 49.8233 51.0645C49.2163 51.282 48.6852 51.0101 48.3059 50.8144C48.1541 50.7382 47.9157 50.6186 47.8506 50.6403C47.6122 50.76 47.4496 52.1085 48.0457 53.3483C48.5118 54.3271 49.303 54.8926 49.8883 55.1862C50.0834 55.2841 50.1701 55.5343 50.0617 55.73C49.9967 55.8931 49.8558 55.9693 49.7041 55.9693Z" fill="#7D662D"/>
<path d="M48.0783 40.9613C47.9048 40.9613 47.7531 40.8525 47.6989 40.6894C46.8318 38.0793 48.8586 36.0674 49.509 35.7411C49.7041 35.6324 49.9533 35.7194 50.0509 35.9151C50.1484 36.1109 50.0726 36.361 49.8775 36.4589C49.5848 36.6111 47.7206 38.2098 48.4576 40.4284C48.5335 40.6459 48.4143 40.8743 48.1975 40.9395C48.165 40.9613 48.1216 40.9613 48.0783 40.9613Z" fill="#7D662D"/>
<path d="M58.1907 42.5817H50.918C50.6904 42.5817 50.5169 42.3968 50.5169 42.1793C50.5169 41.9618 50.7012 41.7769 50.918 41.7769H58.1907C58.4183 41.7769 58.5917 41.9618 58.5917 42.1793C58.5917 42.3968 58.4074 42.5817 58.1907 42.5817Z" fill="#7D662D"/>
<path d="M58.1907 49.8791H50.918C50.6904 49.8791 50.5169 49.6942 50.5169 49.4767C50.5169 49.2483 50.7012 49.0743 50.918 49.0743H58.1907C58.4183 49.0743 58.5917 49.2592 58.5917 49.4767C58.5917 49.7051 58.4183 49.8791 58.1907 49.8791Z" fill="#7D662D"/>
<defs>
<linearGradient id="paint0_linear_111_2" x1="24.0151" y1="130.602" x2="62.6503" y2="31.4555" gradientUnits="userSpaceOnUse">
<stop stop-color="#885DF5"/>
<stop offset="0.9944" stop-color="#6B7CFE"/>
</linearGradient>
<linearGradient id="paint1_linear_111_2" x1="75.8556" y1="220.129" x2="144.334" y2="44.3982" gradientUnits="userSpaceOnUse">
<stop stop-color="#885DF5"/>
<stop offset="0.9944" stop-color="#6B7CFE"/>
</linearGradient>
<linearGradient id="paint2_linear_111_2" x1="277.141" y1="41.1438" x2="279.014" y2="36.3374" gradientUnits="userSpaceOnUse">
<stop stop-color="#885DF5"/>
<stop offset="0.9944" stop-color="#6B7CFE"/>
</linearGradient>
<linearGradient id="paint3_linear_111_2" x1="279.235" y1="51.457" x2="284.508" y2="37.9252" gradientUnits="userSpaceOnUse">
<stop stop-color="#885DF5"/>
<stop offset="0.9944" stop-color="#6B7CFE"/>
</linearGradient>
<linearGradient id="paint4_linear_111_2" x1="303.108" y1="52.975" x2="308.292" y2="39.671" gradientUnits="userSpaceOnUse">
<stop stop-color="#885DF5"/>
<stop offset="0.9944" stop-color="#6B7CFE"/>
</linearGradient>
<linearGradient id="paint5_linear_111_2" x1="318.988" y1="54.9049" x2="324.337" y2="41.1787" gradientUnits="userSpaceOnUse">
<stop stop-color="#885DF5"/>
<stop offset="0.9944" stop-color="#6B7CFE"/>
</linearGradient>
<linearGradient id="paint6_linear_111_2" x1="147.331" y1="291.164" x2="232.562" y2="72.4438" gradientUnits="userSpaceOnUse">
<stop stop-color="#885DF5"/>
<stop offset="0.9944" stop-color="#6B7CFE"/>
</linearGradient>
<linearGradient id="paint7_linear_111_2" x1="0.0246164" y1="55.898" x2="106.87" y2="55.8214" gradientUnits="userSpaceOnUse">
<stop stop-color="#4D338A"/>
<stop offset="0.9888" stop-color="#252857"/>
</linearGradient>
<linearGradient id="paint8_linear_111_2" x1="0.0488494" y1="89.7482" x2="252.066" y2="89.5677" gradientUnits="userSpaceOnUse">
<stop stop-color="#6947BD"/>
<stop offset="0.9888" stop-color="#252857"/>
</linearGradient>
<linearGradient id="paint9_linear_111_2" x1="0.0650218" y1="112.3" x2="301.147" y2="112.085" gradientUnits="userSpaceOnUse">
<stop stop-color="#885DF5"/>
<stop offset="0.9888" stop-color="#2E3670"/>
</linearGradient>
<linearGradient id="paint10_linear_111_2" x1="277.141" y1="41.1438" x2="279.014" y2="36.3374" gradientUnits="userSpaceOnUse">
<stop stop-color="#885DF5"/>
<stop offset="0.9944" stop-color="#6B7CFE"/>
</linearGradient>
<linearGradient id="paint11_linear_111_2" x1="279.235" y1="51.457" x2="284.508" y2="37.9252" gradientUnits="userSpaceOnUse">
<stop stop-color="#885DF5"/>
<stop offset="0.9944" stop-color="#6B7CFE"/>
</linearGradient>
<linearGradient id="paint12_linear_111_2" x1="77.2192" y1="112.245" x2="353.572" y2="112.047" gradientUnits="userSpaceOnUse">
<stop stop-color="#885DF5"/>
<stop offset="0.9944" stop-color="#4551A6"/>
</linearGradient>
<linearGradient id="paint13_linear_111_2" x1="303.108" y1="52.975" x2="308.292" y2="39.671" gradientUnits="userSpaceOnUse">
<stop stop-color="#885DF5"/>
<stop offset="0.9944" stop-color="#6B7CFE"/>
</linearGradient>
<linearGradient id="paint14_linear_111_2" x1="318.988" y1="54.9049" x2="324.337" y2="41.1787" gradientUnits="userSpaceOnUse">
<stop stop-color="#885DF5"/>
<stop offset="0.9944" stop-color="#6B7CFE"/>
</linearGradient>
<linearGradient id="paint15_linear_111_2" x1="149.775" y1="143.617" x2="353.595" y2="143.471" gradientUnits="userSpaceOnUse">
<stop stop-color="#885DF5"/>
<stop offset="0.9944" stop-color="#5C6BDB"/>
</linearGradient>
<linearGradient id="paint16_linear_111_2" x1="147.331" y1="291.164" x2="232.562" y2="72.4438" gradientUnits="userSpaceOnUse">
<stop stop-color="#885DF5"/>
<stop offset="0.9944" stop-color="#6B7CFE"/>
</linearGradient>
<linearGradient id="paint17_linear_111_2" x1="190.045" y1="179.496" x2="353.62" y2="179.379" gradientUnits="userSpaceOnUse">
<stop stop-color="#885DF5"/>
<stop offset="0.9944" stop-color="#6B7CFE"/>
</linearGradient>
</defs>
</svg>
